 <svg className="app-logo" id="Layer_1" data-name="Zoro Logo HeaderBig" xmlns="http://www.w3.org/2000/svg" viewBox="0 0 293.3 80.74">
        <polygon fill="#7697a2" points="66.67 66.27 33.34 80.71 0 66.27 33.34 51.84 66.67 66.27"></polygon>
        <polygon fill="#0f495b" points="33.34 34.86 33.34 80.74 0.01 66.27 0 20.39 33.34 34.86"></polygon>
        <polygon fill="#e79870" points="41.72 45.87 41.72 0 75.05 14.47 75.05 60.34 41.72 45.87"></polygon>
        <polygon fill="#d24816" points="8.39 14.47 41.72 0.02 75.06 14.47 41.72 28.9 8.39 14.47"></polygon>
        <path fill="#0b485b" className="cls-2" d="M140.32,51.59V64H96.81V54.2l21.84-25.15H97.42V16.79h42v9.66L117.61,51.59Z"></path>
        <path fill="#0b485b" className="cls-2" d="M157.12,61.6a23.31,23.31,0,0,1-13-21.32,23.24,23.24,0,0,1,12.92-21.19,32,32,0,0,1,27.45,0A23.15,23.15,0,0,1,194,27.71a23.54,23.54,0,0,1,3.39,12.57A23.76,23.76,0,0,1,194,52.9a23.34,23.34,0,0,1-9.49,8.7,31.55,31.55,0,0,1-27.41,0Zm20.8-13q2.78-3,2.78-8.31t-2.78-8.18a10.08,10.08,0,0,0-14.27,0q-2.79,3-2.78,8.18t2.78,8.31a10,10,0,0,0,14.27,0Z"></path>
        <path fill="#0b485b" className="cls-2" d="M227.39,17.61A24.94,24.94,0,0,1,236.65,16V30.88a33.82,33.82,0,0,0-3.74-.26q-5.31,0-8.31,2.87t-3,8.79V64H205.07V16.79h15.75v5.66A15.4,15.4,0,0,1,227.39,17.61Z"></path>
        <path fill="#0b485b" className="cls-2" d="M253,61.6a23.31,23.31,0,0,1-13-21.32A23.24,23.24,0,0,1,253,19.09a32,32,0,0,1,27.45,0,23.15,23.15,0,0,1,9.49,8.61,23.54,23.54,0,0,1,3.39,12.57,23.76,23.76,0,0,1-3.39,12.62,23.34,23.34,0,0,1-9.49,8.7,31.55,31.55,0,0,1-27.41,0Zm20.8-13q2.78-3,2.78-8.31t-2.78-8.18a10.08,10.08,0,0,0-14.27,0q-2.79,3-2.78,8.18t2.78,8.31a10,10,0,0,0,14.27,0Z"></path>
 </svg>
        